<svg id="Layer_1" data-name="Layer 1" xmlns="http://www.w3.org/2000/svg" xmlns:xlink="http://www.w3.org/1999/xlink" viewBox="0 0 350.51703 144"><defs><style>.cls-1{fill:url(#linear-gradient);}.cls-2{fill:url(#linear-gradient-2);}.cls-3{fill:#ca0123;}</style><linearGradient id="linear-gradient" x1="1237.62829" y1="115.83734" x2="1136.98305" y2="202.94285" gradientTransform="translate(1336.30879 290.68296) rotate(180)" gradientUnits="userSpaceOnUse"><stop offset="0" stop-color="#ca0123"/><stop offset="0.13638" stop-color="#c10123"/><stop offset="0.35885" stop-color="#a90122"/><stop offset="0.63965" stop-color="#810121"/><stop offset="0.96508" stop-color="#4a011f"/><stop offset="0.96785" stop-color="#4a011f"/></linearGradient><linearGradient id="linear-gradient-2" x1="181.1115" y1="104.94638" x2="80.46626" y2="192.05189" gradientTransform="matrix(1, 0, 0, 1, 0, 0)" xlink:href="#linear-gradient"/></defs><g id="Logo"><g id="Group"><path class="cls-1" d="M136.656,193.896c31.32,0,53.64-25.2,53.64-54a50.206,50.206,0,0,0-58.68-49.68c3.24-1.08,8.64-1.44,11.52-1.44,36.72,0,58.68,29.52,58.68,61.2,0,37.08-27.72,61.92-61.92,61.92a71.84124,71.84124,0,0,1-52.92-120.6c-9.36,12.96-11.88,25.92-11.88,38.88C75.096,163.656,97.776,193.896,136.656,193.896Z" transform="translate(-67.896 -67.896)"/><path class="cls-2" d="M143.136,85.896c-31.32,0-53.64,25.2-53.64,54a50.206,50.206,0,0,0,58.68,49.68c-3.24,1.08-8.64,1.44-11.52,1.44-36.72,0-58.68-29.52-58.68-61.2,0-37.08,27.72-61.92,61.92-61.92a71.84125,71.84125,0,0,1,52.92,120.6c9.36-12.96,11.88-25.92,11.88-38.88C204.696,116.136,182.016,85.896,143.136,85.896Z" transform="translate(-67.896 -67.896)"/></g><path class="cls-3" d="M244.40148,157.78364c-7.191,0-11.14606-4.31461-11.50562-11.14607h6.83146c0,3.59551,1.79776,5.39326,4.31461,5.39326,1.79776,0,3.59551-.7191,3.59551-3.236s-1.79775-3.95506-5.03371-5.75281l-2.51686-1.43821c-3.59551-1.79775-6.47191-4.3146-6.47191-9.34831,0-6.47191,4.67416-9.70787,10.78652-9.70787,6.47191,0,10.427,3.95506,10.427,10.427H247.997c-.35955-3.5955-1.4382-5.39326-3.95506-5.39326a3.01774,3.01774,0,0,0-3.236,3.236c0,2.51685,2.1573,3.95506,4.67416,5.39326l2.1573,1.4382c2.51685,1.4382,7.191,3.95505,7.191,10.427C255.188,154.90724,249.79474,157.78364,244.40148,157.78364Zm24.44944-.35954c6.11235,0,11.14606-4.31461,11.14606-12.94383,0-8.26966-5.0337-12.94382-11.14606-12.94382s-11.14607,4.67416-11.14607,12.94382C257.70485,153.10949,262.73857,157.78364,268.85092,157.4241Zm0-5.75281c-2.51686,0-4.31461-2.51686-4.31461-7.191s1.79775-7.191,4.31461-7.191,4.31461,2.51686,4.31461,7.191S271.72733,151.67129,268.85092,151.67129Zm14.74158,5.7528H290.424V121.82858H283.5925Zm32-.35955V132.61509H308.761v15.10113c0,2.87641-1.43821,4.31461-3.5955,4.31461s-3.59551-1.43821-3.59551-4.31461V132.25555h-6.83144v16.89888c0,5.39326,2.87639,8.62921,7.55056,8.62921a6.554,6.554,0,0,0,6.11235-3.236h.35954l.71912,2.51685Zm27.68538-28.04495a3.95506,3.95506,0,0,0,0-7.91011,4.0807,4.0807,0,0,0-4.31459,3.95506A4.31721,4.31721,0,0,0,343.27789,129.01959Zm-3.5955,28.045h6.83146v-24.809h-6.83146Zm21.93258.35956c6.11235,0,11.14606-4.31461,11.14606-12.94383,0-8.26966-5.03371-12.94382-11.14606-12.94382s-11.14607,4.67416-11.14607,12.94382C350.4689,153.10949,355.50262,157.4241,361.615,157.4241Zm0-5.75281c-2.51684,0-4.31459-2.51686-4.31459-7.191s1.79775-7.191,4.31459-7.191,4.3146,2.51686,4.3146,7.191S364.13184,151.67129,361.615,151.67129Zm47.81176,5.38906c4.67288,0,8.98628-2.1567,8.98628-7.189s-3.59451-6.82957-6.82958-7.90792l-1.79725-.71891c-1.79726-.71889-3.23507-1.4378-3.23507-2.8756a1.90628,1.90628,0,0,1,2.1567-2.15671,2.64549,2.64549,0,0,1,2.87562,2.87561h6.47013c0-4.31342-3.23506-7.54847-8.98627-7.54847-5.03232,0-8.98628,2.51616-8.98628,7.54847,0,4.67286,3.59451,6.11067,6.47013,7.189l1.79726.7189c2.1567.7189,3.59451,1.4378,3.59451,3.23506,0,1.4378-1.07834,2.15671-2.51615,2.15671-1.79725,0-2.87562-.7189-3.23506-3.23506h-6.47013C400.081,154.54419,403.3161,157.4198,409.42675,157.06035Zm-79.09265.36373a16.11832,16.11832,0,0,0,4.3146-.35955v-5.03371a4.56021,4.56021,0,0,1-2.1573.35956A2.63407,2.63407,0,0,1,329.615,149.514V137.64881h6.11235v-5.39326H329.615v-6.47191h-6.11235V128.66c0,2.51686-1.07867,3.59551-3.59551,3.59551h-1.07866v5.39326h4.31459v12.94382C323.14306,154.54769,325.30036,157.78364,330.3341,157.42408ZM375.997,132.25555l0,24.809h6.83146V141.96342c0-3.236,1.43821-4.67416,3.59551-4.67416s3.59551,1.43821,3.59551,4.31461v15.46067h6.83146V140.16566c0-5.39325-2.87639-8.62921-7.55056-8.62921a6.554,6.554,0,0,0-6.11234,3.236h-.35955l-.71909-2.51686ZM108.664,105.69388v36.07791c0,10.23226,5.77131,14.952,15.66265,14.952,11.94929,0,15.72837-6.5148,15.72837-14.952V105.69388h-11.67v37.27323c0,2.12369-.93245,4.78137-3.99268,4.78137-3.32312,0-4.05429-2.058-4.05429-4.44864v-37.606H108.664M144.6515,173.59V123.71846h11.67V163.596h14.29068v9.994H144.6515" transform="translate(-67.896 -67.896)"/></g></svg>