<svg xmlns="http://www.w3.org/2000/svg" viewBox="0 0 32 32">
  <!-- UL Midnight Blue background -->
  <rect width="32" height="32" rx="6" fill="#122C49"/>
  <!-- Wrench icon (UL Red) — matches DashboardShell brand icon -->
  <g transform="translate(6, 6)" fill="none" stroke="#CA0123" stroke-width="1.8" stroke-linecap="round" stroke-linejoin="round">
    <!-- Wrench handle -->
    <path d="M14.7 6.3a1 1 0 0 0 0 1.4l1.6 1.6a1 1 0 0 0 1.4 0l3.77-3.77a6 6 0 0 1-7.94 7.94l-1.76 1.75a2 2 0 0 1-2.83 0l-.79-.79a2 2 0 0 1 0-2.83L9.26 9.26a6 6 0 0 1 7.94-7.94l-3.5 3.5z"/>
  </g>
</svg>
